<?xml version="1.0" encoding="utf-8"?>
<!-- Generator: Adobe Illustrator 23.0.1, SVG Export Plug-In . SVG Version: 6.00 Build 0)  -->
<svg version="1.1" id="Layer_1" xmlns="http://www.w3.org/2000/svg" xmlns:xlink="http://www.w3.org/1999/xlink" x="0px" y="0px"
	 viewBox="0 0 500 500" style="enable-background:new 0 0 500 500;" xml:space="preserve">
<style type="text/css">
	.st0{fill:none;}
	.st1{fill:#FCEBBF;}
	.st2{fill:#FCD05D;}
	.st3{fill:#FDAA68;}
	.st4{fill:#DE975C;}
	.st5{fill:#CC7745;}
	.st6{fill:#E6DBC6;}
	.st7{fill:#E0C47C;}
	.st8{fill:#F0D385;}
	.st9{fill:#E1834D;}
	.st10{fill:#FBF0DA;}
	.st11{fill:#ED553B;}
	.st12{fill:#FC5B3E;}
	.st13{fill:#DE4F37;}
	.st14{fill:#CF4934;}
	.st15{fill:#AEAEB0;}
	.st16{fill:#D0D1D3;}
	.st17{fill:#01A0C7;}
	.st18{fill:#018FB3;}
</style>
<g>
	<path class="st3" d="M300.82,303.57c2.38-7.46,28.06-6.7,67.7,0.54c2.12-4.66,4.02-9.47,5.61-14.47c1.39-4.35,2.53-8.72,3.45-13.1
		c-50.96-16.32-90.48-34.76-88.4-41.27c2.01-6.31,42.3,0.88,91.15,16.08c0.59-55.71-34.85-107.66-90.69-125.49
		c-40.4-12.9-82.44-5.05-114.65,17.59c57.93,23.83,94.69,44.91,91.6,54.57c-3.45,10.82-55.87,4.38-128.91-14.09
		c-4.81,8.19-8.82,17.01-11.83,26.43c-3.76,11.76-5.71,23.66-6.1,35.42c1.93,0.59,3.86,1.21,5.82,1.83
		c51.28,16.38,91.15,34.95,89.07,41.49c-2.04,6.38-43.33-1.07-93-16.67c8.11,46.21,40.94,86.46,88.73,101.71
		c50.15,16.01,102.83,0.04,136.08-36.51C316.01,322.68,298.66,310.32,300.82,303.57z"/>
	<path class="st4" d="M266.58,198.02c3.09-9.66-33.68-30.75-91.6-54.57c-14.94,10.5-27.75,24.2-37.31,40.48
		C210.71,202.41,263.13,208.84,266.58,198.02z"/>
	<path class="st4" d="M300.82,303.57c-2.16,6.75,15.2,19.11,45.61,34.06c8.9-9.78,16.4-21.02,22.09-33.53
		C328.87,296.87,303.2,296.11,300.82,303.57z"/>
	<path class="st4" d="M289.17,235.27c-2.08,6.51,37.45,24.95,88.4,41.27c1.76-8.42,2.66-16.84,2.75-25.19
		C331.48,236.15,291.18,228.96,289.17,235.27z"/>
	<path class="st4" d="M214.62,289.1c2.08-6.54-37.79-25.12-89.07-41.49c-1.95-0.62-3.89-1.23-5.82-1.83
		c-0.29,9.01,0.35,17.93,1.88,26.65C171.3,288.03,212.59,295.48,214.62,289.1z"/>
</g>
</svg>
