<?xml version="1.0" encoding="utf-8"?>
<!-- Generator: Adobe Illustrator 23.0.1, SVG Export Plug-In . SVG Version: 6.00 Build 0)  -->
<svg version="1.1" id="Layer_1" xmlns="http://www.w3.org/2000/svg" xmlns:xlink="http://www.w3.org/1999/xlink" x="0px" y="0px"
	 viewBox="0 0 500 500" style="enable-background:new 0 0 500 500;" xml:space="preserve">
<style type="text/css">
	.st0{fill:none;}
	.st1{fill:#FCEBBF;}
	.st2{fill:#FCD05D;}
	.st3{fill:#FDAA68;}
	.st4{fill:#DE975C;}
	.st5{fill:#CC7745;}
	.st6{fill:#E6DBC6;}
	.st7{fill:#E0C47C;}
	.st8{fill:#F0D385;}
	.st9{fill:#E1834D;}
	.st10{fill:#FBF0DA;}
	.st11{fill:#ED553B;}
	.st12{fill:#FC5B3E;}
	.st13{fill:#DE4F37;}
	.st14{fill:#CF4934;}
	.st15{fill:#AEAEB0;}
	.st16{fill:#D0D1D3;}
	.st17{fill:#01A0C7;}
	.st18{fill:#018FB3;}
</style>
<g>
	<path class="st11" d="M356.8,134.5c5.73,16.89,8.88,34.97,8.88,53.8c0,92.43-74.93,167.36-167.36,167.36
		c-29.29,0-56.8-7.55-80.75-20.76c6.88,10.7,15.01,20.53,24.2,29.24h50.76c3.19,0,5.79,2.59,5.79,5.78c0,3.19-2.59,5.78-5.79,5.78
		H155.4c26.33,19.85,59.09,31.62,94.6,31.62c86.89,0,157.34-70.44,157.34-157.33C407.33,204.34,387.86,163.24,356.8,134.5z"/>
	<path class="st12" d="M365.69,188.3c0-18.83-3.15-36.91-8.88-53.8c-28.06-25.95-65.57-41.83-106.8-41.83
		C163.11,92.67,92.67,163.1,92.67,250c0,31.28,9.16,60.41,24.92,84.9c23.94,13.21,51.46,20.76,80.75,20.76
		C290.76,355.66,365.69,280.73,365.69,188.3z"/>
	<path class="st13" d="M198.33,256.17c0,3.41-2.77,6.17-6.17,6.17h-69.41c-3.41,0-6.17-2.76-6.17-6.17l0,0
		c0-3.41,2.76-6.17,6.17-6.17h69.41C195.56,250,198.33,252.76,198.33,256.17L198.33,256.17z"/>
	<path class="st13" d="M349.49,173.64c0,2.98-2.42,5.4-5.4,5.4h-44.73c-2.98,0-5.4-2.42-5.4-5.4l0,0c0-2.98,2.42-5.4,5.4-5.4h44.73
		C347.07,168.25,349.49,170.66,349.49,173.64L349.49,173.64z"/>
	<path class="st13" d="M334.06,193.7c0,2.98-2.42,5.4-5.4,5.4h-45.51c-2.98,0-5.4-2.42-5.4-5.4l0,0c0-2.98,2.42-5.4,5.4-5.4h45.51
		C331.65,188.3,334.06,190.72,334.06,193.7L334.06,193.7z"/>
	<path class="st14" d="M385.74,241.52c0,1.71-1.38,3.08-3.09,3.08h-45.5c-1.7,0-3.08-1.38-3.08-3.08l0,0c0-1.71,1.38-3.08,3.08-3.08
		h45.5C384.36,238.43,385.74,239.81,385.74,241.52L385.74,241.52z"/>
	<path class="st14" d="M198.33,369.93c0-3.19-2.59-5.78-5.79-5.78h-50.76c4.32,4.1,8.85,7.98,13.61,11.57h37.14
		C195.73,375.71,198.33,373.12,198.33,369.93z"/>
	<path class="st13" d="M260.02,141.64c0,3.19-2.59,5.78-5.78,5.78h-54.76c-3.19,0-5.78-2.59-5.78-5.78l0,0
		c0-3.19,2.59-5.78,5.78-5.78h54.76C257.43,135.85,260.02,138.45,260.02,141.64L260.02,141.64z"/>
	<path class="st13" d="M305.91,324.81c0,3.41-2.76,6.17-6.17,6.17h-99.88c-3.41,0-6.17-2.76-6.17-6.17l0,0
		c0-3.41,2.76-6.17,6.17-6.17h99.88C303.15,318.64,305.91,321.4,305.91,324.81L305.91,324.81z"/>
	<path class="st14" d="M293.96,351.42c0,2.34-1.9,4.24-4.24,4.24h-52.45c-2.34,0-4.24-1.9-4.24-4.24l0,0c0-2.34,1.9-4.24,4.24-4.24
		h52.45C292.06,347.18,293.96,349.08,293.96,351.42L293.96,351.42z"/>
	<path class="st13" d="M263.5,241.32c0,4.8-3.88,8.68-8.68,8.68l0,0c-4.8,0-8.68-3.88-8.68-8.68v-1.93c0-4.8,3.88-8.67,8.68-8.67
		l0,0c4.79,0,8.68,3.88,8.68,8.67V241.32z"/>
	<path class="st13" d="M334.06,295.5c0,3.83-3.11,6.94-6.94,6.94h-30.85c-3.83,0-6.94-3.11-6.94-6.94l0,0
		c0-3.83,3.11-6.95,6.94-6.95h30.85C330.95,288.56,334.06,291.67,334.06,295.5L334.06,295.5z"/>
	<path class="st13" d="M198.33,207.58c0,2.98-2.42,5.4-5.4,5.4h-30.08c-2.98,0-5.4-2.41-5.4-5.4l0,0c0-2.98,2.42-5.4,5.4-5.4h30.08
		C195.91,202.18,198.33,204.6,198.33,207.58L198.33,207.58z"/>
</g>
</svg>
