<?xml version="1.0" encoding="utf-8"?>
<!-- Generator: Adobe Illustrator 23.0.1, SVG Export Plug-In . SVG Version: 6.00 Build 0)  -->
<svg version="1.1" id="Layer_1" xmlns="http://www.w3.org/2000/svg" xmlns:xlink="http://www.w3.org/1999/xlink" x="0px" y="0px"
	 viewBox="0 0 500 500" style="enable-background:new 0 0 500 500;" xml:space="preserve">
<style type="text/css">
	.st0{fill:none;}
	.st1{fill:#FCEBBF;}
	.st2{fill:#FCD05D;}
	.st3{fill:#FDAA68;}
	.st4{fill:#DE975C;}
	.st5{fill:#CC7745;}
	.st6{fill:#E6DBC6;}
	.st7{fill:#E0C47C;}
	.st8{fill:#F0D385;}
	.st9{fill:#E1834D;}
	.st10{fill:#FBF0DA;}
	.st11{fill:#ED553B;}
	.st12{fill:#FC5B3E;}
	.st13{fill:#DE4F37;}
	.st14{fill:#CF4934;}
	.st15{fill:#AEAEB0;}
	.st16{fill:#D0D1D3;}
	.st17{fill:#01A0C7;}
	.st18{fill:#018FB3;}
</style>
<g>
	<path class="st17" d="M376.66,265.82c0.24-1.92,0.45-3.84,0.6-5.77c5.55-70.29-46.94-131.78-117.23-137.33
		c-46.89-3.7-89.82,18.44-114.89,54.44c5.43,0.02,11.14,0.25,17.05,0.71c33.13,2.61,59.44,11.5,58.79,19.84
		c-0.66,8.34-28.04,12.98-61.17,10.37c-10.54-0.83-20.38-2.3-28.9-4.19c-4.37,11.29-7.21,23.38-8.21,36.06
		c-0.05,0.64-0.06,1.27-0.1,1.92c36.77-4,76.93-4.66,118.79-1.36C290.51,244.39,336.42,253.31,376.66,265.82z M272.09,177.58
		c9.99-8.41,33.69-7.48,47.49-0.8C428.34,228.44,199.1,258.26,272.09,177.58z"/>
	<path class="st18" d="M319.59,176.78c-13.8-6.68-37.5-7.6-47.49,0.8C199.1,258.26,428.34,228.44,319.59,176.78z"/>
	<path class="st18" d="M220.98,197.71c0.66-8.34-25.66-17.23-58.79-19.84c-5.91-0.46-11.63-0.69-17.05-0.71
		c-5.73,8.23-10.53,17.19-14.22,26.73c8.51,1.89,18.35,3.36,28.9,4.19C192.94,210.69,220.32,206.06,220.98,197.71z"/>
	<path class="st18" d="M168.04,347.88c22.1-4.03,49.08-5.32,77.99-3.04c26.64,2.1,51.18,6.94,71.46,13.52
		c10.91-6.81,20.74-15.24,29.15-24.97c-0.67-0.05-1.33-0.09-2-0.14c-70.36-5.56-126.53-21.04-125.46-34.58
		c1.07-13.54,58.97-20.01,129.33-14.46c8.15,0.64,16.11,1.42,23.81,2.31c1.99-6.67,3.45-13.59,4.33-20.7
		c-40.24-12.51-86.15-21.43-135.27-25.31c-41.86-3.31-82.02-2.65-118.79,1.36C119.91,283.92,137.94,322.63,168.04,347.88z"/>
	<path class="st17" d="M219.18,298.67c-1.07,13.54,55.1,29.02,125.46,34.58c0.67,0.05,1.34,0.1,2,0.14
		c11.58-13.41,20.45-29.29,25.68-46.86c-7.7-0.89-15.66-1.67-23.81-2.31C278.15,278.65,220.25,285.13,219.18,298.67z"/>
	<path class="st17" d="M168.04,347.88c19.64,16.47,44.39,27.23,71.89,29.4c28.31,2.23,55.18-4.96,77.56-18.92
		c-20.28-6.58-44.82-11.42-71.46-13.52C217.12,342.56,190.15,343.85,168.04,347.88z"/>
</g>
</svg>
