<?xml version="1.0" encoding="utf-8"?>
<!-- Generator: Adobe Illustrator 23.0.1, SVG Export Plug-In . SVG Version: 6.00 Build 0)  -->
<svg version="1.1" id="Layer_1" xmlns="http://www.w3.org/2000/svg" xmlns:xlink="http://www.w3.org/1999/xlink" x="0px" y="0px"
	 viewBox="0 0 500 500" style="enable-background:new 0 0 500 500;" xml:space="preserve">
<style type="text/css">
	.st0{fill:none;}
	.st1{fill:#FCEBBF;}
	.st2{fill:#FCD05D;}
	.st3{fill:#FDAA68;}
	.st4{fill:#DE975C;}
	.st5{fill:#CC7745;}
	.st6{fill:#E6DBC6;}
	.st7{fill:#E0C47C;}
	.st8{fill:#F0D385;}
	.st9{fill:#E1834D;}
	.st10{fill:#FBF0DA;}
	.st11{fill:#ED553B;}
	.st12{fill:#FC5B3E;}
	.st13{fill:#DE4F37;}
	.st14{fill:#CF4934;}
	.st15{fill:#AEAEB0;}
	.st16{fill:#D0D1D3;}
	.st17{fill:#01A0C7;}
	.st18{fill:#018FB3;}
</style>
<g>
	<path class="st15" d="M293.77,271.7c-8.85,1.89-9.28,13.05-21.58,13c-16.16-0.05-18.41-16.21-29.24,1.44
		c-8.07,14.17-1.55,27.64-1.27,41.75c22.63,2.4,46.11-5.01,63.51-22.3c7.2-7.14,12.69-15.34,16.53-24.1
		C312.56,274.95,301.72,269.95,293.77,271.7z"/>
	<path class="st15" d="M207.21,277.93c11.55-3.04,22.34-10.69,23.54-23.38c2.38-20.76-20.71-17-24.12-31.24
		c-2.27-10.01,11.59-13.81,12.78-23.42c0.99-6.36-2.09-12.93-6.42-18.93c-6.52,3.5-12.66,7.97-18.18,13.45
		c-17.9,17.78-25.4,42.05-22.52,65.3C182.45,269.63,195.31,280.39,207.21,277.93z"/>
	<path class="st15" d="M264.77,205.44c6.27-0.73,22.84-9.1,32.58-17.82c-16.91-12.87-37.85-17.95-57.96-15.22
		C243.09,187.09,248.95,206.65,264.77,205.44z"/>
	<path class="st15" d="M274.68,233.17c-6.21,16.13,7.65,11.56,17.27,10.45c11.57-1.3,24.91,2.07,36.34,8.4
		c0.43-16.86-4.52-33.83-14.93-48.09C301.57,215.16,278.86,223.67,274.68,233.17z"/>
	<path class="st16" d="M219.41,199.89c-1.19,9.61-15.05,13.41-12.78,23.42c3.41,14.24,26.5,10.48,24.12,31.24
		c-1.2,12.69-12,20.34-23.54,23.38c-11.89,2.46-24.75-8.3-34.92-18.22c2.06,16.6,9.42,32.69,22.13,45.48
		c13.2,13.29,29.98,20.85,47.26,22.69c-0.28-14.1-6.8-27.58,1.27-41.75c10.83-17.66,13.08-1.49,29.24-1.44
		c12.31,0.05,12.73-11.11,21.58-13c7.95-1.74,18.79,3.26,27.95,9.78c4.12-9.38,6.3-19.4,6.56-29.47
		c-11.43-6.33-24.77-9.69-36.34-8.4c-9.62,1.12-23.48,5.68-17.27-10.45c4.18-9.5,26.9-18,38.68-29.25
		c-2.32-3.18-4.91-6.23-7.77-9.11c-2.61-2.63-5.37-5.01-8.23-7.19c-9.74,8.73-26.32,17.09-32.58,17.82
		c-15.82,1.21-21.68-18.35-25.37-33.04c-9.14,1.24-18.09,4.11-26.41,8.57C217.31,186.96,220.39,193.53,219.41,199.89z"/>
</g>
</svg>
