<?xml version="1.0" encoding="utf-8"?>
<!-- Generator: Adobe Illustrator 23.0.1, SVG Export Plug-In . SVG Version: 6.00 Build 0)  -->
<svg version="1.1" id="Layer_1" xmlns="http://www.w3.org/2000/svg" xmlns:xlink="http://www.w3.org/1999/xlink" x="0px" y="0px"
	 viewBox="0 0 500 500" style="enable-background:new 0 0 500 500;" xml:space="preserve">
<style type="text/css">
	.st0{fill:none;}
	.st1{fill:#FCEBBF;}
	.st2{fill:#FCD05D;}
	.st3{fill:#FDAA68;}
	.st4{fill:#DE975C;}
	.st5{fill:#CC7745;}
	.st6{fill:#E6DBC6;}
	.st7{fill:#E0C47C;}
	.st8{fill:#F0D385;}
	.st9{fill:#E1834D;}
	.st10{fill:#FBF0DA;}
	.st11{fill:#ED553B;}
	.st12{fill:#FC5B3E;}
	.st13{fill:#DE4F37;}
	.st14{fill:#CF4934;}
	.st15{fill:#AEAEB0;}
	.st16{fill:#D0D1D3;}
	.st17{fill:#01A0C7;}
	.st18{fill:#018FB3;}
</style>
<g>
	<path class="st0" d="M131.25,255.77c-27.8,14.75-43.66,28.83-40.88,38.65c2.77,9.78,23.5,13.47,54.69,11.52
		c-3.89-7.33-7.07-15.17-9.42-23.47C133.12,273.56,131.68,264.62,131.25,255.77z"/>
	<path class="st0" d="M58.59,302.86c-4.12-14.55,24.93-36.66,72.65-58.48c0.04-0.95,0.1-1.91,0.17-2.86
		c-51.39,23.44-82.87,47.68-78.3,63.82c4.56,16.11,43.92,20.28,99.8,13.36c-0.93-1.32-1.83-2.65-2.71-4
		C98.62,320.97,62.69,317.33,58.59,302.86z"/>
	<path class="st1" d="M262.02,291.37c-40.79,11.55-79.39,19.39-111.82,23.33c0.88,1.36,1.78,2.69,2.71,4
		c32.41-4.01,70.37-11.75,110.32-23.06c39.96-11.31,76.34-24.61,106.05-38.18c0.1-1.61,0.17-3.21,0.21-4.83
		C339.81,266.28,302.81,279.83,262.02,291.37z"/>
	<path class="st1" d="M160.68,328.58c29.38,33.46,76.39,49.02,122.08,36.09c45.7-12.93,77.58-50.83,85.06-94.72
		c-30.25,12.48-64.82,24.46-101.97,34.98C228.7,315.45,192.98,323.36,160.68,328.58z"/>
	<path class="st1" d="M364.98,217.54c-2.52-8.9-5.98-17.27-10.25-25.04c-1.84-3.35-3.83-6.58-5.95-9.7
		c-0.54-0.79-1.08-1.57-1.64-2.34c-2.79-3.88-5.79-7.57-8.99-11.05c-29.47-32.07-75.51-46.77-120.29-34.09
		c-44.78,12.67-76.29,49.31-84.58,92.08c-0.9,4.64-1.53,9.36-1.87,14.12c-0.07,0.95-0.12,1.9-0.17,2.86
		c-0.18,3.77-0.18,7.57,0.01,11.38c0.44,8.85,1.87,17.8,4.39,26.69c2.35,8.3,5.53,16.15,9.42,23.47
		c30.6-1.91,71.28-9.26,114.96-21.63c43.69-12.36,82.18-27.42,109.24-41.83C368.73,234.19,367.33,225.85,364.98,217.54z"/>
	<g>
		<path class="st2" d="M486.1,182.08c-6.29-22.23-66.3-26-147.96-12.66c3.2,3.48,6.21,7.17,8.99,11.05
			c56.05-6.98,95.56-2.82,100.13,13.32c4.56,16.11-26.78,40.29-77.99,63.68c-29.71,13.57-66.09,26.88-106.05,38.18
			c-39.96,11.31-77.91,19.05-110.32,23.06c-55.88,6.92-95.24,2.75-99.8-13.36c-4.57-16.14,26.91-40.38,78.3-63.82
			c0.34-4.76,0.97-9.48,1.87-14.12C56.74,258.85,7.6,293.5,13.9,315.73c6.26,22.12,65.73,25.95,146.79,12.85
			c32.3-5.22,68.02-13.13,105.17-23.65c37.16-10.52,71.72-22.5,101.97-34.98C443.73,238.63,492.37,204.21,486.1,182.08z"/>
		<path class="st2" d="M90.36,294.41c-2.78-9.82,13.08-23.9,40.88-38.65c-0.19-3.81-0.19-7.62-0.01-11.38
			c-47.71,21.82-76.76,43.93-72.65,58.48c4.1,14.47,40.02,18.11,91.6,11.84c32.43-3.94,71.03-11.79,111.82-23.33
			c40.79-11.55,77.79-25.09,107.47-38.73c47.22-21.7,75.9-43.62,71.81-58.1c-4.12-14.55-40.45-18.15-92.51-11.73
			c2.12,3.12,4.12,6.35,5.95,9.7c31.4-2.01,52.3,1.67,55.07,11.49c2.77,9.79-12.95,23.79-40.54,38.47
			c-27.07,14.41-65.56,29.47-109.24,41.83c-43.69,12.36-84.36,19.72-114.96,21.63C113.86,307.88,93.13,304.2,90.36,294.41z"/>
	</g>
</g>
</svg>
