<?xml version="1.0" encoding="utf-8"?>
<!-- Generator: Adobe Illustrator 23.0.1, SVG Export Plug-In . SVG Version: 6.00 Build 0)  -->
<svg version="1.1" id="Layer_1" xmlns="http://www.w3.org/2000/svg" xmlns:xlink="http://www.w3.org/1999/xlink" x="0px" y="0px"
	 viewBox="0 0 500 500" style="enable-background:new 0 0 500 500;" xml:space="preserve">
<style type="text/css">
	.st0{fill:none;}
	.st1{fill:#FCEBBF;}
	.st2{fill:#FCD05D;}
	.st3{fill:#FDAA68;}
	.st4{fill:#DE975C;}
	.st5{fill:#CC7745;}
	.st6{fill:#E6DBC6;}
	.st7{fill:#E0C47C;}
	.st8{fill:#F0D385;}
	.st9{fill:#E1834D;}
	.st10{fill:#FBF0DA;}
	.st11{fill:#ED553B;}
	.st12{fill:#FC5B3E;}
	.st13{fill:#DE4F37;}
	.st14{fill:#CF4934;}
	.st15{fill:#AEAEB0;}
	.st16{fill:#D0D1D3;}
	.st17{fill:#01A0C7;}
	.st18{fill:#018FB3;}
</style>
<g>
	<path class="st5" d="M364.65,150.8c-6.77-7.82-14.34-14.92-22.55-21.22c1.43,7.78,2.46,15.69,3.08,23.72
		C351.66,152.46,358.2,151.63,364.65,150.8z"/>
	<path class="st6" d="M345.94,171.1c0,0.51-0.03,1.02-0.04,1.53c11.25-0.96,22.45-1.51,33.58-1.53c-4.39-7.18-9.34-13.97-14.83-20.3
		c-6.45,0.83-12.99,1.66-19.47,2.5C345.63,159.18,345.94,165.1,345.94,171.1z"/>
	<path class="st5" d="M343.63,203.35c16.71-1.25,33.34-2.1,49.85-2.36c-3.61-10.52-8.29-20.54-14-29.88
		c-11.14,0.02-22.33,0.57-33.58,1.53C345.83,183.05,345.05,193.3,343.63,203.35z"/>
	<path class="st6" d="M304.86,301.75c29.94-3.54,59.74-5.76,89.34-4.68c4.8-14.71,7.44-30.4,7.48-46.7
		c-26.3,5.82-52.61,14.35-78.92,21.06C317.57,282.02,311.56,292.15,304.86,301.75z"/>
	<path class="st5" d="M304.86,301.75c-10.99,15.73-23.9,30-38.4,42.5c37.47-4.31,75.09-6.28,111.21-12.42
		c6.9-10.74,12.5-22.39,16.53-34.76C364.6,295.99,334.8,298.21,304.86,301.75z"/>
	<path class="st7" d="M188.04,388.43c18.91,8.5,39.88,13.25,61.96,13.25c53.62,0,100.7-27.85,127.66-69.86
		c-36.12,6.14-73.73,8.1-111.21,12.42C243.76,363.8,217.19,378.97,188.04,388.43z"/>
	<path class="st6" d="M330.56,253.5c23.44-5.73,46.21-15.59,69.71-23.92c-1.35-9.86-3.64-19.43-6.79-28.6
		c-16.51,0.27-33.14,1.11-49.85,2.36C341.17,220.77,336.72,237.57,330.56,253.5z"/>
	<path class="st5" d="M400.27,229.58c-23.5,8.32-46.27,18.19-69.71,23.92c-2.36,6.1-4.94,12.09-7.8,17.92
		c26.31-6.7,52.62-15.24,78.92-21.06c0-0.12,0.01-0.25,0.01-0.37C401.69,243.07,401.19,236.26,400.27,229.58z"/>
	<path class="st8" d="M267.34,141.65c22.1-8.04,45.15-13.25,68.69-16.57c-24.45-16.87-54.08-26.77-86.03-26.77
		c-42.79,0-81.42,17.75-109,46.25C184.19,141.23,228.62,155.73,267.34,141.65z"/>
	<path class="st9" d="M267.34,141.65c-38.72,14.08-83.15-0.42-126.34,2.91c-10.89,11.26-20.02,24.21-27.04,38.39
		c76.13-9.89,154.41-19.78,231.21-29.66c-0.62-8.03-1.65-15.94-3.08-23.72c-2-1.53-4-3.06-6.07-4.49
		C312.49,128.4,289.44,133.61,267.34,141.65z"/>
	<path class="st10" d="M345.94,171.1c0-6-0.31-11.92-0.76-17.8c-76.8,9.89-155.08,19.77-231.21,29.66
		c-4.35,8.81-7.82,18.11-10.42,27.77c80.25-4.11,162.59-31.34,242.35-38.1C345.9,172.12,345.94,171.61,345.94,171.1z"/>
	<path class="st9" d="M345.9,172.63c-79.76,6.76-162.1,33.99-242.35,38.1c-2.32,8.64-3.87,17.59-4.64,26.76
		c81.32-12.18,164.05-28.14,244.73-34.14C345.05,193.3,345.83,183.05,345.9,172.63z"/>
	<path class="st10" d="M232.66,280.34c-45.02-5.3-88.42-4.1-131.19,0.58c3.16,15.24,8.6,29.63,15.96,42.83
		c62.73-1.61,125.39-14.67,187.43-22c6.7-9.6,12.71-19.72,17.9-30.32C292.73,279.08,262.7,284.34,232.66,280.34z"/>
	<path class="st9" d="M157.49,370.14c35.14-15.11,71.99-21.64,108.97-25.9c14.5-12.5,27.41-26.77,38.4-42.5
		c-62.04,7.33-124.7,20.39-187.43,22C127.51,341.82,141.21,357.58,157.49,370.14z"/>
	<path class="st8" d="M157.49,370.14c9.38,7.23,19.62,13.38,30.55,18.29c29.15-9.46,55.72-24.63,78.42-44.19
		C229.48,348.5,192.63,355.03,157.49,370.14z"/>
	<path class="st10" d="M98.9,237.49c-0.34,4.13-0.59,8.29-0.59,12.51c0,1.65,0.07,3.28,0.13,4.91
		c64.33-10.53,131.73,7.38,195.48,3.39c12.52,0,24.66-1.87,36.63-4.8c6.17-15.93,10.61-32.73,13.07-50.16
		C262.95,209.35,180.23,225.31,98.9,237.49z"/>
	<path class="st9" d="M98.44,254.91c0.28,8.88,1.29,17.58,3.03,26.01c42.77-4.68,86.17-5.88,131.19-0.58
		c30.03,4,60.06-1.26,90.09-8.92c2.86-5.83,5.44-11.82,7.8-17.92c-11.97,2.93-24.12,4.8-36.63,4.8
		C230.18,262.29,162.78,244.38,98.44,254.91z"/>
</g>
</svg>
