<?xml version="1.0" encoding="utf-8"?>
<!-- Generator: Adobe Illustrator 23.0.1, SVG Export Plug-In . SVG Version: 6.00 Build 0)  -->
<svg version="1.1" id="Objects" xmlns="http://www.w3.org/2000/svg" xmlns:xlink="http://www.w3.org/1999/xlink" x="0px" y="0px"
	 viewBox="0 0 188.36 158.73" style="enable-background:new 0 0 188.36 158.73;" xml:space="preserve">
<style type="text/css">
	.st0{fill:#FFFFFF;stroke:#FFFFFF;stroke-width:0.7428;stroke-miterlimit:10;}
	.st1{fill:#FFFFFF;stroke:#FFFFFF;stroke-width:0.5499;stroke-miterlimit:10;}
	.st2{opacity:0.13;fill:#FFFFFF;stroke:#FFFFFF;stroke-width:0.2493;stroke-miterlimit:10;}
	.st3{opacity:0.13;fill:#FFFFFF;stroke:#FFFFFF;stroke-width:0.4885;stroke-miterlimit:10;}
	.st4{opacity:0.36;fill:#FFFFFF;stroke:#FFFFFF;stroke-width:0.1824;stroke-miterlimit:10;}
	.st5{fill:#D6B577;}
	.st6{fill:#FFD258;}
	.st7{fill:#FFFFFF;}
	.st8{fill:#98F4ED;}
	.st9{fill:#3A3867;}
	.st10{fill:#032560;}
	.st11{fill:#FFAB3D;}
</style>
<g>
	<g>
		<path class="st0" d="M141.38,38.87c0,0,6.09-1.69,8.39-7.75c0,0,1.73,5.81,7.79,7.27c0,0-5.86,4-7.36,8.83
			C150.19,47.22,149.35,41.05,141.38,38.87z"/>
		<path class="st1" d="M16.01,64.1c0,0,4.51-1.25,6.21-5.74c0,0,1.28,4.3,5.76,5.39c0,0-4.34,2.96-5.45,6.54
			C22.53,70.28,21.91,65.71,16.01,64.1z"/>
		<path class="st2" d="M105.51,8.98c-0.14,0.09-0.26,0.21-0.36,0.35c-0.57,0.68-0.46,1.89,0.4,2.36c1.04,0.57,2.36-0.13,2.41-1.33
			C108,9.16,106.51,8.31,105.51,8.98z"/>
		<polygon class="st3" points="60.34,22.05 59.58,26.47 55.03,27.34 59.43,28.9 60.34,34.88 61.56,29.24 66.41,28.38 61.86,26.73 		
			"/>
		<polygon class="st3" points="165.61,85.91 164.85,90.33 160.29,91.2 164.7,92.76 165.61,98.74 166.82,93.1 171.68,92.24 
			167.12,90.59 		"/>
		<path class="st4" d="M117.2,27.38c-0.53-0.15-1.05-0.31-1.57-0.48c-0.07-0.63,0.1-1.26-0.02-1.89c-0.04-0.22-0.32-0.2-0.38,0
			c-0.15,0.57-0.31,1.14-0.48,1.7c-0.57,0.01-1.13-0.12-1.7-0.02c-0.17,0.03-0.24,0.31-0.05,0.36c0.55,0.15,1.09,0.32,1.63,0.49
			c0,0.63-0.22,1.23-0.17,1.87c0.02,0.19,0.3,0.22,0.36,0.05c0.21-0.58,0.44-1.16,0.68-1.74c0.55,0,1.09,0.12,1.64,0.03
			C117.33,27.71,117.4,27.43,117.2,27.38z"/>
	</g>
	<g>
		
			<ellipse transform="matrix(0.0874 -0.9962 0.9962 0.0874 -92.4253 181.2318)" class="st5" cx="52.7" cy="141.06" rx="7.05" ry="10.77"/>
		<ellipse class="st5" cx="93.29" cy="144.85" rx="13.3" ry="8.11"/>
		<path class="st5" d="M145.46,139.71c0.55,3.03-3.64,7.63-9.7,8.74c-6.07,1.1-11.72-1.71-12.27-4.74
			c-0.55-3.03,3.92-6.39,9.99-7.49C139.54,135.11,144.91,136.68,145.46,139.71z"/>
		<path class="st6" d="M183.04,129.7c0,0-9.17-19.74-72.4-28.67l-16.96,0.42l-16.96-0.42c-63.23,8.93-72.4,28.67-72.4,28.67
			s38.46,13.55,89.36,13.24C144.58,143.26,183.04,129.7,183.04,129.7z"/>
		<g>
			<path class="st7" d="M164.45,124.32c0.46,1.7-1.52,3.72-4.43,4.5c-2.91,0.79-5.63,0.04-6.09-1.66c-0.46-1.7,1.52-3.72,4.43-4.5
				C161.26,121.87,163.99,122.62,164.45,124.32z"/>
			<path class="st7" d="M134.06,130.13c0.17,1.75-2.12,3.41-5.12,3.7c-3,0.29-5.56-0.89-5.73-2.65c-0.17-1.75,2.12-3.41,5.12-3.7
				C131.32,127.19,133.89,128.38,134.06,130.13z"/>
			<path class="st7" d="M98.46,132.92c0.01,1.76-2.42,3.21-5.43,3.23c-3.01,0.02-5.46-1.39-5.47-3.15
				c-0.01-1.76,2.42-3.21,5.43-3.23C96,129.74,98.45,131.15,98.46,132.92z"/>
			<path class="st7" d="M63.79,130.79c-0.32,1.73-2.98,2.69-5.94,2.15c-2.96-0.55-5.1-2.39-4.78-4.13c0.32-1.73,2.98-2.69,5.94-2.15
				C61.97,127.21,64.11,129.06,63.79,130.79z"/>
			<path class="st7" d="M33.32,123.45c-0.23,1.75-2.84,2.84-5.82,2.45c-2.98-0.39-5.22-2.13-4.99-3.88
				c0.23-1.75,2.84-2.84,5.82-2.45C31.32,119.97,33.55,121.71,33.32,123.45z"/>
		</g>
		<path class="st8" d="M92.22,126.27c-16.35,0-35.32-3.19-55.66-12.63l-0.31-0.14l-0.03-0.33c-0.01-0.16-1.24-16,5.03-33.33
			c4.61-12.75,14.12-28.41,33.73-37.95c15.9-7.73,34.99-6.22,48.73,4.9c0.48,0.39,0.97,0.8,1.45,1.22
			c14.67,12.81,22.83,34.27,24.27,63.78l0.02,0.34l-0.29,0.18C148.83,112.51,126.16,126.27,92.22,126.27z"/>
		<path class="st9" d="M140.04,100.21c-1.73-4.7-4.03-10.02-7.03-15.19c1.8-0.69,3.09-2.43,3.09-4.47c0-2.65-2.15-4.8-4.8-4.8
			c-1.38,0-2.61,0.59-3.49,1.52c-8.22-10.53-20.16-18.55-37.33-16.23c-15.08,2.04-25.54,8.14-32.79,15.99
			c-0.86-0.79-1.99-1.28-3.24-1.28c-2.65,0-4.8,2.15-4.8,4.8c0,1.72,0.91,3.22,2.28,4.07c-6.42,10.31-8.91,22.08-9.76,31.47
			c18.22,7.54,35.22,10.19,50.06,10.19c25.17,0,44.13-7.56,52.39-11.56C143.44,110.33,141.95,105.4,140.04,100.21z"/>
		<g>
			<g>
				<path class="st10" d="M87.7,97.75c0.93,1.49,2.33,2.86,3.97,3.52c3.24,1.31,5.9-0.91,7.78-3.37c0.71-0.93-0.87-1.84-1.58-0.92
					c-1.65,2.17-3.93,3.84-6.49,2.07c-0.82-0.57-1.57-1.36-2.1-2.22C88.66,95.84,87.08,96.75,87.7,97.75L87.7,97.75z"/>
				<g>
					<path class="st10" d="M82.01,87.07c0,1.15-0.93,2.08-2.08,2.08c-1.15,0-2.08-0.93-2.08-2.08s0.93-2.08,2.08-2.08
						C81.08,84.99,82.01,85.92,82.01,87.07z"/>
					<path class="st10" d="M108.7,87.07c0,1.15-0.93,2.08-2.08,2.08s-2.08-0.93-2.08-2.08s0.93-2.08,2.08-2.08
						S108.7,85.92,108.7,87.07z"/>
				</g>
			</g>
			<g>
				<path class="st11" d="M80.62,95.89c0,2.04-1.88,3.69-4.19,3.69c-2.31,0-4.19-1.65-4.19-3.69c0-2.04,1.88-3.69,4.19-3.69
					C78.75,92.2,80.62,93.85,80.62,95.89z"/>
				<path class="st11" d="M113.34,95.89c0,2.04-1.88,3.69-4.19,3.69c-2.31,0-4.19-1.65-4.19-3.69c0-2.04,1.88-3.69,4.19-3.69
					C111.46,92.2,113.34,93.85,113.34,95.89z"/>
			</g>
		</g>
	</g>
</g>
</svg>
